<svg width="24" height="24" viewBox="0 0 24 24" fill="none" xmlns="http://www.w3.org/2000/svg">
<path d="M21.6 12.2C21.6 11.5 21.5 10.9 21.4 10.2H12V14.1H17.4C17.1 15.5 16.2 16.7 14.8 17.4V20.1H18.4C20.5 18.1 21.6 15.4 21.6 12.2Z" fill="#4285F4"/>
<path d="M12 22C14.9 22 17.3 21 18.4 20.1L14.8 17.4C13.8 18 12.4 18.4 12 18.4C9.1 18.4 6.7 16.5 5.8 14H2V16.8C3.1 19.5 7.3 22 12 22Z" fill="#34A853"/>
<path d="M5.8 14C5.5 13.2 5.4 12.4 5.4 11.5C5.4 10.6 5.5 9.8 5.8 9V6.2H2C1.1 8.3 0.5 10.8 0.5 11.5C0.5 12.2 1.1 14.7 2 16.8L5.8 14Z" fill="#FBBC05"/>
<path d="M12 4.6C13.5 4.6 14.8 5.1 15.8 6L18.9 3C17.3 1.5 14.9 0.5 12 0.5C7.3 0.5 3.1 3 2 6.2L5.8 9C6.7 6.5 9.1 4.6 12 4.6Z" fill="#EA4335"/>
</svg>
