<svg width="24" height="24" viewBox="0 0 24 24" fill="none" xmlns="http://www.w3.org/2000/svg">
<path d="M8 4H14L18 8V19C18 19.5523 17.5523 20 17 20H8C7.44772 20 7 19.5523 7 19V5C7 4.44772 7.44772 4 8 4Z" stroke="currentColor" stroke-width="1.8"/>
<path d="M14 4V8H18" stroke="currentColor" stroke-width="1.8"/>
<path d="M9.5 13H10.5C11.3 13 12 13.5 12 14.4C12 15.3 11.3 15.8 10.5 15.8H9.5V13Z" fill="currentColor"/>
<path d="M12.8 13H14.8C15.7 13 16.3 13.5 16.3 14.3C16.3 15.1 15.7 15.6 14.8 15.6H13.6V17.2H12.8V13Z" fill="currentColor"/>
</svg>
